# xmcd
#
# Track frame offsets:
# 150
# 14103
# 28738
# 46358
# 61450
# 89595
# 113973
# 130620
# 142533
#
# Disc length: 2276 seconds
#
#
# Revision: 0
# Processed by: cddbd v1.5.1PL2 Copyright (c) Steve Scherf et al.
# Submitted via: FreeRIP 2.945 
#
DISCID=7808e209
DTITLE=Clifton Jansky - Who Will Stand
DYEAR=1994
DGENRE=Christian Country
TTITLE0=It's Not Ya'll Come
TTITLE1=Are You Willing
TTITLE2=Born to Die
TTITLE3=I Wanna Take the Light of Jesus
TTITLE4=Walkin' Talkin' Real Live Answered Prayer
TTITLE5=Who Will Stand
TTITLE6=My Redeemer Is  Faithful And True
TTITLE7=God Is My Provider (I Don't Need No Lottery)
TTITLE8=Medley: Amazing Grace/I Saw the Light/I'll Fly Away
EXTD=
EXTT0=
EXTT1=
EXTT2=
EXTT3=
EXTT4=
EXTT5=
EXTT6=
EXTT7=
EXTT8=
PLAYORDER=
